<?xml version="1.0" encoding="utf-8"?>
<!-- Generator: Adobe Illustrator 22.0.1, SVG Export Plug-In . SVG Version: 6.00 Build 0)  -->
<svg version="1.1" id="Layer_1" xmlns="http://www.w3.org/2000/svg" xmlns:xlink="http://www.w3.org/1999/xlink" x="0px" y="0px"
	 viewBox="0 0 1668.5 319" style="enable-background:new 0 0 1668.5 319;" xml:space="preserve">
<style type="text/css">
	.st0{display:none;fill:#D5232F;}
	.st1{fill:#FFFFFF;}
</style>
<rect x="-65.2" y="-101.4" class="st0" width="1831" height="585"/>
<g>
	<path class="st1" d="M181.7,244.1H92.4l-15.6,50.5H7.3l99.1-270.2h61.2l99.8,270.2h-70L181.7,244.1z M108,193.8h58.1L137,100.1
		L108,193.8z"/>
	<path class="st1" d="M489.2,193.8l31-169.4h64.6l-57.3,270.2h-67.6l-36.2-154l-35.4,154h-67.4L263.4,24.3h64.8l31,169.4l37.1-169.4
		h55.3L489.2,193.8z"/>
	<path class="st1" d="M755.7,244.1h-89.3l-15.6,50.5h-69.6l99.1-270.2h61.2l99.8,270.2h-70L755.7,244.1z M682,193.8h58.1L711,100.1
		L682,193.8z"/>
	<path class="st1" d="M953,194l-26.7,29.3v71.3h-65.1V24.3h65.1v119.1l22.6-34.3l58.3-84.8h80.5l-91.3,119.5l91.3,150.7h-77.2
		L953,194z"/>
	<path class="st1" d="M1271.8,179.9h-102.4v64.6h121v50.1h-186.1V24.3h186.5v50.3h-121.4v57h102.4V179.9z"/>
	<path class="st1" d="M1542.6,294.5h-64.8l-95.8-168.1v168.1h-65.1V24.3h65.1l95.6,168.1V24.3h65V294.5z"/>
	<path class="st1" d="M1566.2,103V80.6l58.2-33.1h-58.2V25h93.5v22.5l-58.2,33.1h58.2V103H1566.2z"/>
	<path class="st1" d="M1567.8,199.1v-22.4l58.2-33.1h-58.2V121h93.5v22.5l-58.2,33.1h58.2v22.5H1567.8z"/>
	<path class="st1" d="M1567.8,294.7v-22.4l58.2-33.1h-58.2v-22.5h93.5v22.5l-58.2,33.1h58.2v22.5H1567.8z"/>
</g>
</svg>
